<svg width="20" height="20" viewBox="0 0 20 20" fill="none" xmlns="http://www.w3.org/2000/svg">
<path d="M2.37167 4.90567C2.39667 4.65984 2.3025 4.41734 2.11917 4.25234L0.2525 2.00234V1.6665H6.05083L10.5325 11.4957L14.4725 1.6665H20V2.00234L18.4033 3.53317C18.2658 3.63817 18.1975 3.81067 18.2258 3.9815V15.2298C18.1975 15.3998 18.2658 15.5723 18.4033 15.6773L19.9625 17.2082V17.544H12.1192V17.2082L13.735 15.6398C13.8933 15.4815 13.8933 15.4348 13.8933 15.1923V6.10067L9.4025 17.5073H8.79583L3.56667 6.10067V13.7457C3.52333 14.0665 3.63 14.3907 3.85583 14.6223L5.95667 17.1707V17.5073H0V17.1707L2.10083 14.6223C2.32583 14.3898 2.42583 14.064 2.37167 13.7457V4.90567Z" fill="#6E38F7"/>
</svg>
