<svg width="20" height="20" viewBox="0 0 20 20" fill="none" xmlns="http://www.w3.org/2000/svg">
<path d="M12.7453 18.3332V12.3121H14.9894L15.3254 9.70657H12.7453V8.04311C12.7453 7.28874 12.9548 6.77467 14.0366 6.77467L15.4163 6.77407V4.44366C15.1776 4.41191 14.3586 4.34097 13.4058 4.34097C11.4166 4.34097 10.0547 5.55521 10.0547 7.78507V9.70657H7.80485V12.3121H10.0547V18.3332H3.66666C2.56209 18.3332 1.66666 17.4377 1.66666 16.3332L1.66666 3.6665C1.66666 2.56193 2.56209 1.6665 3.66666 1.6665L16.3333 1.6665C17.4379 1.6665 18.3333 2.56193 18.3333 3.6665V16.3332C18.3333 17.4377 17.4379 18.3332 16.3333 18.3332H12.7453Z" fill="#6E38F7"/>
</svg>
