<svg width="18" height="14" viewBox="0 0 18 14" fill="none" xmlns="http://www.w3.org/2000/svg">
<path d="M17.3333 1.93697C16.7201 2.20919 16.0611 2.39252 15.3694 2.47516C16.0757 2.05225 16.618 1.38211 16.8729 0.583496C16.2125 0.975163 15.4805 1.25989 14.7014 1.41336C14.0785 0.748774 13.1889 0.333496 12.2055 0.333496C9.99791 0.333496 8.37568 2.39322 8.8743 4.53141C6.03332 4.38905 3.51388 3.02794 1.82707 0.959191C0.93124 2.496 1.36249 4.50641 2.88471 5.52447C2.32499 5.50641 1.79721 5.35294 1.3368 5.09669C1.2993 6.68072 2.43471 8.16266 4.07916 8.49252C3.59791 8.62308 3.07082 8.65364 2.53471 8.55086C2.96943 9.90919 4.23193 10.8974 5.72916 10.9252C4.29166 12.0522 2.48055 12.5557 0.666656 12.3418C2.17985 13.312 3.97777 13.8779 5.90832 13.8779C12.2569 13.8779 15.8437 8.51614 15.6271 3.70711C16.2951 3.22447 16.875 2.62239 17.3333 1.93697Z" fill="#6E38F7"/>
</svg>
