<svg width="20" height="20" viewBox="0 0 20 20" fill="none" xmlns="http://www.w3.org/2000/svg">
<path fill-rule="evenodd" clip-rule="evenodd" d="M16.5215 4.52683C15.2141 4.1665 9.99481 4.1665 9.99481 4.1665C9.99481 4.1665 4.7858 4.1665 3.47841 4.50623C2.77839 4.70182 2.20198 5.27824 2.00638 5.98856C1.66666 7.29595 1.66666 10.0035 1.66666 10.0035C1.66666 10.0035 1.66666 12.7212 2.00638 14.008C2.20198 14.7184 2.7681 15.2845 3.47841 15.4801C4.7961 15.8301 9.99481 15.8301 9.99481 15.8301C9.99481 15.8301 15.2141 15.8301 16.5215 15.4904C17.2318 15.2948 17.7979 14.739 17.9832 14.0183C18.3333 12.7212 18.3333 10.0138 18.3333 10.0138C18.3333 10.0138 18.3435 7.29595 17.9832 5.98856C17.7979 5.27824 17.2318 4.71213 16.5215 4.52683ZM8.33739 12.4947V7.50195L12.6714 10.0035L8.33739 12.4947Z" fill="#6E38F7"/>
</svg>
